<mxfile host="app.diagrams.net" modified="2022-07-29T21:35:45.436Z" agent="5.0 (Macintosh; Intel Mac OS X 10_15_7) AppleWebKit/537.36 (KHTML, like Gecko) Chrome/103.0.0.0 Safari/537.36" etag="oeFmNT9odWrdqJRGgprI" version="19.0.0" type="github">
  <diagram id="cRLgliQMGQ-1TOJEBZo5" name="Page-1">
    <mxGraphModel dx="1143" dy="534" grid="1" gridSize="10" guides="1" tooltips="1" connect="1" arrows="1" fold="1" page="1" pageScale="1" pageWidth="850" pageHeight="1100" math="0" shadow="0">
      <root>
        <mxCell id="0" />
        <mxCell id="1" parent="0" />
        <mxCell id="NEqLIp1LdVRqIWkXqVdn-3" style="edgeStyle=orthogonalEdgeStyle;rounded=0;orthogonalLoop=1;jettySize=auto;html=1;exitX=0.5;exitY=1;exitDx=0;exitDy=0;entryX=0.5;entryY=0;entryDx=0;entryDy=0;" edge="1" parent="1" source="NEqLIp1LdVRqIWkXqVdn-1" target="NEqLIp1LdVRqIWkXqVdn-2">
          <mxGeometry relative="1" as="geometry" />
        </mxCell>
        <mxCell id="NEqLIp1LdVRqIWkXqVdn-1" value="Document" style="whiteSpace=wrap;html=1;aspect=fixed;" vertex="1" parent="1">
          <mxGeometry x="385" y="30" width="80" height="80" as="geometry" />
        </mxCell>
        <mxCell id="NEqLIp1LdVRqIWkXqVdn-5" value="" style="edgeStyle=orthogonalEdgeStyle;rounded=0;orthogonalLoop=1;jettySize=auto;html=1;" edge="1" parent="1" source="NEqLIp1LdVRqIWkXqVdn-2" target="NEqLIp1LdVRqIWkXqVdn-4">
          <mxGeometry relative="1" as="geometry" />
        </mxCell>
        <mxCell id="NEqLIp1LdVRqIWkXqVdn-2" value="HTML" style="rounded=0;whiteSpace=wrap;html=1;" vertex="1" parent="1">
          <mxGeometry x="365" y="130" width="120" height="60" as="geometry" />
        </mxCell>
        <mxCell id="NEqLIp1LdVRqIWkXqVdn-9" value="" style="edgeStyle=orthogonalEdgeStyle;rounded=0;orthogonalLoop=1;jettySize=auto;html=1;" edge="1" parent="1" source="NEqLIp1LdVRqIWkXqVdn-4" target="NEqLIp1LdVRqIWkXqVdn-8">
          <mxGeometry relative="1" as="geometry" />
        </mxCell>
        <mxCell id="NEqLIp1LdVRqIWkXqVdn-4" value="HEAD" style="rounded=0;whiteSpace=wrap;html=1;" vertex="1" parent="1">
          <mxGeometry x="280" y="240" width="120" height="60" as="geometry" />
        </mxCell>
        <mxCell id="NEqLIp1LdVRqIWkXqVdn-6" value="BODY" style="rounded=0;whiteSpace=wrap;html=1;" vertex="1" parent="1">
          <mxGeometry x="450" y="240" width="120" height="60" as="geometry" />
        </mxCell>
        <mxCell id="NEqLIp1LdVRqIWkXqVdn-7" value="" style="edgeStyle=orthogonalEdgeStyle;rounded=0;orthogonalLoop=1;jettySize=auto;html=1;exitX=0.5;exitY=1;exitDx=0;exitDy=0;" edge="1" parent="1" source="NEqLIp1LdVRqIWkXqVdn-2" target="NEqLIp1LdVRqIWkXqVdn-6">
          <mxGeometry relative="1" as="geometry">
            <mxPoint x="435" y="200" as="sourcePoint" />
            <mxPoint x="350" y="250" as="targetPoint" />
          </mxGeometry>
        </mxCell>
        <mxCell id="NEqLIp1LdVRqIWkXqVdn-8" value="TITLE" style="rounded=0;whiteSpace=wrap;html=1;" vertex="1" parent="1">
          <mxGeometry x="280" y="340" width="120" height="60" as="geometry" />
        </mxCell>
        <mxCell id="NEqLIp1LdVRqIWkXqVdn-10" value="" style="edgeStyle=orthogonalEdgeStyle;rounded=0;orthogonalLoop=1;jettySize=auto;html=1;" edge="1" parent="1" target="NEqLIp1LdVRqIWkXqVdn-11">
          <mxGeometry relative="1" as="geometry">
            <mxPoint x="510" y="300" as="sourcePoint" />
          </mxGeometry>
        </mxCell>
        <mxCell id="NEqLIp1LdVRqIWkXqVdn-11" value="H1" style="rounded=0;whiteSpace=wrap;html=1;" vertex="1" parent="1">
          <mxGeometry x="450" y="340" width="120" height="60" as="geometry" />
        </mxCell>
        <mxCell id="NEqLIp1LdVRqIWkXqVdn-12" value="" style="edgeStyle=orthogonalEdgeStyle;rounded=0;orthogonalLoop=1;jettySize=auto;html=1;" edge="1" parent="1" target="NEqLIp1LdVRqIWkXqVdn-13">
          <mxGeometry relative="1" as="geometry">
            <mxPoint x="340" y="400" as="sourcePoint" />
          </mxGeometry>
        </mxCell>
        <mxCell id="NEqLIp1LdVRqIWkXqVdn-13" value="&quot;My Web Page&quot;" style="rounded=0;whiteSpace=wrap;html=1;" vertex="1" parent="1">
          <mxGeometry x="280" y="440" width="120" height="60" as="geometry" />
        </mxCell>
        <mxCell id="NEqLIp1LdVRqIWkXqVdn-14" value="" style="edgeStyle=orthogonalEdgeStyle;rounded=0;orthogonalLoop=1;jettySize=auto;html=1;" edge="1" parent="1" target="NEqLIp1LdVRqIWkXqVdn-15">
          <mxGeometry relative="1" as="geometry">
            <mxPoint x="510" y="400" as="sourcePoint" />
          </mxGeometry>
        </mxCell>
        <mxCell id="NEqLIp1LdVRqIWkXqVdn-15" value="&quot;Welcome&quot;" style="rounded=0;whiteSpace=wrap;html=1;" vertex="1" parent="1">
          <mxGeometry x="450" y="440" width="120" height="60" as="geometry" />
        </mxCell>
      </root>
    </mxGraphModel>
  </diagram>
</mxfile>
